<?xml version="1.0" encoding="UTF-8" standalone="no"?>
<svg width="35px" height="38px" viewBox="0 0 35 38" version="1.1" xmlns="http://www.w3.org/2000/svg" xmlns:xlink="http://www.w3.org/1999/xlink" xmlns:sketch="http://www.bohemiancoding.com/sketch/ns">
    <!-- Generator: Sketch 3.4.3 (16044) - http://www.bohemiancoding.com/sketch -->
    <title>Group</title>
    <desc>Created with Sketch.</desc>
    <defs>
        <path id="path-1" d="M0,0.319674797 L34.4182114,0.319674797 L34.4182114,39.0243902 L0,39.0243902 L0,0.319674797 Z"></path>
        <path id="path-3" d="M0,0.319674797 L34.4182114,0.319674797 L34.4182114,39.0243902 L0,39.0243902"></path>
    </defs>
    <g id="Page-1" stroke="none" stroke-width="1" fill="none" fill-rule="evenodd" sketch:type="MSPage">
        <g id="搜索页面-激活" sketch:type="MSArtboardGroup" transform="translate(-676.000000, -174.000000)">
            <g id="Group" sketch:type="MSLayerGroup" transform="translate(676.000000, 173.000000)">
                <g id="Group-3">
                    <mask id="mask-2" sketch:name="Clip 2" fill="white">
                        <use xlink:href="#path-1"></use>
                    </mask>
                    <g id="Clip-2"></g>
                    <path d="M6.79918701,36.1264896 L28.5194756,36.1264896 L29.2437032,7.29181935 L5.88432393,7.29181935 L6.79918701,36.1264896 Z M29.4714066,38.0487805 L5.85379735,38.0487805 C5.32643501,38.0487805 4.89532486,37.6363349 4.87850409,37.1174023 L3.90289934,6.36105494 C3.89480045,6.10082143 3.9938561,5.84856678 4.17763861,5.66229115 C4.36142111,5.47509488 4.61404418,5.36952846 4.87819259,5.36952846 L30.2439162,5.36952846 C30.5068186,5.36952846 30.7585072,5.47417424 30.9422897,5.65983612 C31.1260722,5.84488423 31.2257508,6.09560448 31.2192094,6.35461047 L30.4466999,37.1112647 C30.4339286,37.6326524 30.000638,38.0487805 29.4714066,38.0487805 L29.4714066,38.0487805 Z" id="Fill-1" fill="#999999" sketch:type="MSShapeGroup" mask="url(#mask-2)"></path>
                </g>
                <g id="Group-6">
                    <mask id="mask-4" sketch:name="Clip 5" fill="white">
                        <use xlink:href="#path-3"></use>
                    </mask>
                    <g id="Clip-5"></g>
                    <path d="M33.3993821,7.40663415 L1.01856911,7.40663415 C0.45596748,7.40663415 3.25203255e-05,6.95069919 3.25203255e-05,6.38809756 C3.25203255e-05,5.82582114 0.45596748,5.36956098 1.01856911,5.36956098 L33.3993821,5.36956098 C33.9616585,5.36956098 34.4182439,5.82582114 34.4182439,6.38809756 C34.4182439,6.95069919 33.9616585,7.40663415 33.3993821,7.40663415" id="Fill-4" fill="#999999" sketch:type="MSShapeGroup" mask="url(#mask-4)"></path>
                </g>
                <path d="M21.7918049,7.40725203 C21.3352195,7.40725203 20.919935,7.09830894 20.8041626,6.63521951 L19.9787967,3.33278049 L14.6516423,3.33278049 L13.8259512,6.63521951 C13.6896911,7.18123577 13.1361951,7.51261789 12.5908293,7.37635772 C12.044813,7.23977236 11.7134309,6.68692683 11.8496911,6.14091057 L12.8682276,2.06708943 C12.9817236,1.6140813 13.388878,1.29538211 13.8565203,1.29538211 L20.7735935,1.29538211 C21.241561,1.29538211 21.6487154,1.6140813 21.7618862,2.06708943 L22.7804228,6.14091057 C22.9170081,6.68692683 22.5849756,7.23977236 22.0396098,7.37635772 C21.9566829,7.39717073 21.8734309,7.40725203 21.7918049,7.40725203" id="Fill-7" fill="#999999" sketch:type="MSShapeGroup"></path>
                <path d="M17.3151545,28.6447218 C17.0026341,28.6447218 16.7493008,28.4708286 16.7493008,28.2563083 L16.7493008,14.2731984 C16.7493008,14.0586781 17.0026341,13.8850081 17.3151545,13.8850081 C17.6276748,13.8850081 17.8810081,14.0586781 17.8810081,14.2731984 L17.8810081,28.2563083 C17.8810081,28.4708286 17.6276748,28.6447218 17.3151545,28.6447218" id="Fill-9" fill="#999999" sketch:type="MSShapeGroup"></path>
                <path d="M11.203935,28.6447218 C10.8910894,28.6447218 10.6380813,28.4708286 10.6380813,28.2563083 L10.6380813,14.2731984 C10.6380813,14.0586781 10.8910894,13.8850081 11.203935,13.8850081 C11.5161301,13.8850081 11.7697886,14.0586781 11.7697886,14.2731984 L11.7697886,28.2563083 C11.7697886,28.4708286 11.5161301,28.6447218 11.203935,28.6447218" id="Fill-11" fill="#999999" sketch:type="MSShapeGroup"></path>
                <path d="M23.4260813,28.6447218 C23.1138862,28.6447218 22.8605528,28.4708286 22.8605528,28.2563083 L22.8605528,14.2731984 C22.8605528,14.0586781 23.1138862,13.8850081 23.4260813,13.8850081 C23.7389268,13.8850081 23.991935,14.0586781 23.991935,14.2731984 L23.991935,28.2563083 C23.991935,28.4708286 23.7389268,28.6447218 23.4260813,28.6447218" id="Fill-13" fill="#999999" sketch:type="MSShapeGroup"></path>
            </g>
        </g>
    </g>
</svg>