<?xml version="1.0" encoding="UTF-8" standalone="no"?>
<svg width="18px" height="32px" viewBox="0 0 18 32" version="1.1" xmlns="http://www.w3.org/2000/svg" xmlns:xlink="http://www.w3.org/1999/xlink" xmlns:sketch="http://www.bohemiancoding.com/sketch/ns">
    <!-- Generator: Sketch 3.4.3 (16044) - http://www.bohemiancoding.com/sketch -->
    <title>Mask</title>
    <desc>Created with Sketch.</desc>
    <defs></defs>
    <g id="Page-1" stroke="none" stroke-width="1" fill="none" fill-rule="evenodd" sketch:type="MSPage">
        <g id="搜索页面-输入页面" sketch:type="MSArtboardGroup" transform="translate(-686.000000, -66.000000)" fill="#666666">
            <path d="M695.269526,86.800859 C694.782774,86.7055854 694.261122,86.8475096 693.884763,87.2238686 L686.565964,94.5426676 C685.960497,95.1481341 685.965981,96.1217328 686.569861,96.7256128 C687.177951,97.3337029 688.151079,97.3312378 688.752806,96.7295104 L695.00018,90.4821363 L701.249235,96.7311905 C701.850233,97.3321884 702.822769,97.3340621 703.430859,96.725972 C704.034739,96.1220921 704.04081,95.1490802 703.436077,94.5443477 L696.126151,87.2344217 C695.884676,86.9929465 695.583221,86.8481912 695.269526,86.800859 Z M695.269526,77.1532668 C694.782774,77.2485404 694.261122,77.1066161 693.884763,76.7302572 L686.565964,69.4114581 C685.960497,68.8059917 685.965981,67.8323929 686.569861,67.228513 C687.177951,66.6204229 688.151079,66.622888 688.752806,67.2246154 L695.00018,73.4719895 L701.249235,67.2229353 C701.850233,66.6219374 702.822769,66.6200637 703.430859,67.2281538 C704.034739,67.8320337 704.04081,68.8050456 703.436077,69.409778 L696.126151,76.7197041 C695.884676,76.9611793 695.583221,77.1059345 695.269526,77.1532668 Z" id="Mask" sketch:type="MSShapeGroup"></path>
        </g>
    </g>
</svg>